<?xml version="1.0" encoding="utf-8"?>
<!-- Generator: Adobe Illustrator 24.0.3, SVG Export Plug-In . SVG Version: 6.00 Build 0)  -->
<svg version="1.1" id="Layer_1" xmlns="http://www.w3.org/2000/svg" xmlns:xlink="http://www.w3.org/1999/xlink" x="0px" y="0px"
	 viewBox="0 0 1366 768" style="enable-background:new 0 0 1366 768;" xml:space="preserve">
<style type="text/css">
	.st0{fill:#FFFFFF;stroke:#000000;stroke-width:2;stroke-miterlimit:10;}
</style>
<path class="st0" d="M520.5,251.5c15.2-17.1,72-53,125-55c35-1.3,96.2,5.8,139,47c27,26,38,81,44,100c9.6,30.4,11.3,51.7,11,65
	c-0.2,7.1-1.5,44-22,79c-35.8,61.1-106,75-121,78c-44.8,8.9-119.3,7.5-152-34c-6.9-8.8-7.4-13.6-29-46c-26.1-39.2-28.7-37-35-50
	c-18.6-38.1-8-79.8,1-115C486.3,301.9,497,277.8,520.5,251.5z"/>
</svg>
